<svg xmlns="http://www.w3.org/2000/svg" xmlns:xlink="http://www.w3.org/1999/xlink" xmlns:sketch="http://www.bohemiancoding.com/sketch/ns" viewBox="0 0 60 75" version="1.1" x="0px" y="0px"><title>67 - Toffee (Solid)</title><desc>Created with Sketch.</desc><g stroke="none" stroke-width="1" fill="none" fill-rule="evenodd" sketch:type="MSPage"><g sketch:type="MSLayerGroup" fill="#000000"><path d="M20.233,22.645 L35.58,43.107 L41.009,37.678 L25.662,17.215 L20.233,22.645" sketch:type="MSShapeGroup"/><path d="M16.029,26.849 C14.08,28.799 14.08,31.971 16.029,33.92 L17.163,35.054 C14.124,35.38 8.573,36.409 3.957,39.674 C1.935,40.407 0.811,41.775 0.947,43.351 C1.063,44.708 1.908,46.082 3.295,46.082 L3.296,46.082 C3.388,46.082 3.482,46.076 3.561,46.063 C3.691,46.075 3.938,46.321 3.951,46.433 L3.848,47.152 C3.762,47.754 3.975,48.401 4.432,48.928 C4.975,49.555 5.757,49.893 6.484,49.787 L7.182,49.684 C7.313,49.696 7.56,49.943 7.573,50.055 L7.47,50.773 C7.384,51.375 7.597,52.022 8.054,52.55 C8.598,53.177 9.376,53.516 10.106,53.409 L10.804,53.306 C10.935,53.318 11.182,53.565 11.195,53.678 L11.092,54.395 C11.006,54.997 11.218,55.644 11.675,56.171 C12.219,56.799 12.995,57.137 13.727,57.031 L14.427,56.928 C14.557,56.94 14.804,57.186 14.817,57.299 L14.799,57.425 C14.722,57.96 14.864,58.473 15.208,58.907 C15.764,59.607 16.715,59.924 17.42,59.986 C17.523,59.995 17.623,60 17.721,60 C19.998,60 20.969,57.786 21.231,56.856 C21.691,56.049 24.33,51.142 25.407,43.298 L26.863,44.754 C27.804,45.695 29.06,46.214 30.398,46.214 C31.737,46.214 32.992,45.695 33.934,44.754 L34.152,44.535 L18.805,24.073 L16.029,26.849 L16.029,26.849 Z M22.177,40.752 C19.34,42.339 17.54,46.261 17.992,49.873 C18.06,50.421 17.672,50.921 17.124,50.989 C17.082,50.994 17.04,50.997 16.998,50.997 C16.502,50.997 16.071,50.627 16.008,50.121 C15.628,47.084 16.528,43.942 18.272,41.618 C17.551,41.797 16.822,41.831 16.049,41.858 C15.452,41.879 14.835,41.9 14.124,41.989 C14.082,41.994 14.04,41.997 13.998,41.997 C13.502,41.997 13.071,41.627 13.008,41.121 C12.94,40.573 13.328,40.073 13.876,40.005 C14.676,39.905 15.369,39.881 15.98,39.859 C17.691,39.801 18.551,39.77 19.825,38.264 C19.913,38.16 20.017,38.08 20.13,38.021 L22.52,40.41 C22.434,40.545 22.326,40.668 22.177,40.752 L22.177,40.752 Z" sketch:type="MSShapeGroup"/><path d="M57.641,14.826 C57.548,14.826 57.453,14.833 57.374,14.846 C57.245,14.834 56.998,14.587 56.984,14.475 L57.087,13.757 C57.174,13.155 56.961,12.509 56.505,11.981 C55.962,11.354 55.165,11.021 54.454,11.122 L53.752,11.223 C53.623,11.212 53.375,10.966 53.363,10.853 L53.465,10.135 C53.552,9.533 53.339,8.887 52.883,8.359 C52.339,7.732 51.544,7.395 50.831,7.5 L50.13,7.601 C50,7.59 49.753,7.344 49.741,7.231 L49.843,6.513 C49.93,5.911 49.717,5.264 49.261,4.737 C48.717,4.11 47.921,3.777 47.209,3.878 L46.508,3.979 C46.378,3.968 46.131,3.722 46.119,3.609 L46.137,3.483 C46.213,2.949 46.072,2.436 45.728,2.002 C45.172,1.301 44.22,0.984 43.515,0.922 C41.077,0.699 39.947,3.062 39.686,4.084 C39.179,4.981 36.592,9.863 35.529,17.61 L33.934,16.015 C32.992,15.073 31.737,14.555 30.398,14.555 C29.168,14.555 28.019,15.01 27.109,15.812 L42.437,36.25 L44.768,33.92 C46.717,31.971 46.717,28.799 44.768,26.849 L43.773,25.854 C46.814,25.529 52.37,24.5 56.978,21.234 C59.001,20.504 60.125,19.135 59.989,17.557 C59.876,16.233 59.015,14.826 57.641,14.826 L57.641,14.826 Z M47.124,20.901 C46.324,21.002 45.631,21.025 45.019,21.047 C43.308,21.105 42.449,21.135 41.175,22.642 C41.076,22.759 40.956,22.848 40.826,22.907 L38.458,20.539 C38.545,20.386 38.658,20.247 38.823,20.154 C41.66,18.566 43.459,14.645 43.008,11.033 C42.94,10.485 43.328,9.985 43.876,9.917 C44.416,9.853 44.924,10.236 44.992,10.785 C45.372,13.822 44.472,16.964 42.728,19.287 C43.449,19.109 44.177,19.074 44.95,19.048 C45.547,19.027 46.165,19.006 46.876,18.917 C47.416,18.855 47.924,19.237 47.992,19.785 C48.06,20.333 47.672,20.833 47.124,20.901 L47.124,20.901 Z" sketch:type="MSShapeGroup"/></g></g><text x="0" y="75" fill="#000000" font-size="5px" font-weight="bold" font-family="'Helvetica Neue', Helvetica, Arial-Unicode, Arial, Sans-serif">Created by Oliviu Stoian</text><text x="0" y="80" fill="#000000" font-size="5px" font-weight="bold" font-family="'Helvetica Neue', Helvetica, Arial-Unicode, Arial, Sans-serif">from the Noun Project</text></svg>